<svg xmlns="http://www.w3.org/2000/svg" xmlns:xlink="http://www.w3.org/1999/xlink" version="1.1" id="Layer_1" x="0" y="0" width="1000" height="1000" viewBox="0 0 1000 1000" enable-background="new 0 0 1000 1000" xml:space="preserve">
  <path fill="#010101" d="M50.94 724.28c-3.29 0-6.33-1.76-7.95-4.61 -1.64-2.85-1.61-6.37 0.06-9.2l58.86-99.83c0.19-0.53 0.44-1.04 0.74-1.53L445.2 40.13c1.66-2.75 4.64-4.43 7.85-4.43h0.02l139.99 0.24c3.3 0.01 6.34 1.79 7.97 4.66 1.62 2.87 1.57 6.4-0.13 9.23L272.87 594.4l356.91 0.6c3.39 0 6.5 1.88 8.09 4.87l58.54 110.37c1.51 2.84 1.42 6.26-0.24 9.02 -1.65 2.76-4.63 4.43-7.84 4.44l-637.38 0.58H50.94zM119.23 617.08c-0.18 0.48-0.4 0.95-0.66 1.39l-51.58 87.46 606.11-0.56 -48.83-92.06 -367.6-0.62c-3.3 0-6.34-1.78-7.97-4.66 -1.62-2.87-1.57-6.4 0.13-9.23L576.84 54.24l-118.62-0.2L119.23 617.08z"/>
  <polygon fill="#FFFFFF" points="950.4 714.43 654.12 159.18 593.04 45.1 256.78 603.43 385.21 603.75 581.75 278.82 878.04 834.27 "/>
  <path fill="#010101" d="M878.04 843.44c-0.08 0-0.17 0-0.24-0.01 -3.3-0.08-6.29-1.93-7.85-4.85L581.25 297.36 393.05 608.49c-1.66 2.74-4.63 4.42-7.84 4.42h-0.02l-128.43-0.32c-3.3-0.01-6.34-1.79-7.96-4.66 -1.62-2.87-1.57-6.39 0.13-9.22L585.2 40.37c1.7-2.82 4.55-4.55 8.08-4.43 3.3 0.08 6.29 1.93 7.85 4.84l61.08 114.07 296.29 555.27c1.52 2.84 1.43 6.28-0.23 9.05l-72.37 119.84C884.22 841.76 881.24 843.44 878.04 843.44M581.75 269.66c0.08 0 0.17 0 0.24 0.01 3.3 0.08 6.29 1.94 7.84 4.85L878.53 815.73l61.34-101.57L646.03 163.49l-53.46-99.85L272.97 594.31l107.08 0.27 193.86-320.49C575.57 271.33 578.55 269.66 581.75 269.66"/>
  <polygon fill="#FFFFFF" points="878.04 834.27 581.76 279.24 514.92 389.39 688.35 714.55 50.93 715.11 122.76 835.28 758.07 834.1 "/>
  <path fill="#010101" d="M122.76 844.44c-3.22 0-6.21-1.7-7.86-4.45l-71.83-120.17c-1.69-2.83-1.73-6.35-0.11-9.22 1.63-2.87 4.66-4.64 7.96-4.65l622.16-0.55L506.83 393.71c-1.52-2.85-1.43-6.3 0.25-9.06l66.83-110.16c1.71-2.82 4.78-4.57 8.09-4.4 3.29 0.09 6.28 1.94 7.83 4.85l296.29 555.04c1.51 2.84 1.43 6.27-0.23 9.03 -1.66 2.76-4.64 4.45-7.86 4.45h-0.01l-119.97-0.19 -635.27 1.19H122.76zM67.08 724.26l60.87 101.85 630.09-1.17 104.7 0.16L581.24 297.75l-55.79 91.94L696.44 710.24c1.51 2.84 1.43 6.26-0.22 9.02 -1.66 2.76-4.64 4.45-7.85 4.45L67.08 724.26z"/>
  <defs>
    <rect id="SVGID_1_" x="41.77" y="35.67" width="917.8" height="808.8"/>
  </defs>
  <clipPath id="SVGID_2_">
    <use xlink:href="#SVGID_1_" overflow="visible"/>
  </clipPath>
  <polygon clip-path="url(#SVGID_2_)" fill="#FFFFFF" points="629.78 604.16 116.87 603.3 50.93 715.11 688.32 714.53 "/>
  <path clip-path="url(#SVGID_2_)" fill="#010101" d="M50.93 724.28c-3.29 0-6.32-1.76-7.95-4.61 -1.63-2.86-1.61-6.37 0.07-9.2l65.93-111.82c1.65-2.8 4.65-4.51 7.9-4.51h0.01l512.9 0.86c3.39 0.01 6.5 1.89 8.08 4.87l58.54 110.37c1.51 2.84 1.42 6.26-0.24 9.02 -1.66 2.76-4.64 4.44-7.85 4.45l-637.39 0.58H50.93zM122.1 612.47l-55.12 93.46 606.12-0.56 -48.84-92.06L122.1 612.47z"/>
  <polygon clip-path="url(#SVGID_2_)" fill="#FFFFFF" points="593.04 45.1 453.05 44.86 116.87 603.3 256.78 603.42 "/>
  <path clip-path="url(#SVGID_2_)" fill="#010101" d="M256.78 612.59h-0.01l-139.91-0.12c-3.3-0.01-6.35-1.78-7.97-4.66 -1.63-2.87-1.58-6.4 0.13-9.22L445.2 40.14c1.66-2.76 4.65-4.44 7.86-4.44h0.01l139.99 0.24c3.3 0.01 6.34 1.79 7.97 4.66 1.62 2.88 1.57 6.4-0.13 9.23L264.63 608.15C262.97 610.9 259.99 612.59 256.78 612.59M133.07 594.15l118.53 0.11L576.84 54.23l-118.62-0.19L133.07 594.15z"/>
  <polygon clip-path="url(#SVGID_2_)" fill="#FFFFFF" points="385.21 603.75 654.12 159.18 593.04 45.1 256.78 603.43 "/>
  <path clip-path="url(#SVGID_2_)" fill="#010101" d="M385.21 612.91h-0.02l-128.43-0.32c-3.3-0.01-6.34-1.79-7.96-4.67 -1.62-2.87-1.57-6.39 0.14-9.22L585.2 40.37c1.7-2.82 4.55-4.56 8.08-4.43 3.3 0.09 6.29 1.93 7.85 4.83l61.08 114.08c1.52 2.85 1.44 6.3-0.24 9.08L393.05 608.49C391.39 611.24 388.42 612.91 385.21 612.91M272.97 594.31l107.08 0.27 263.52-435.68 -51-95.26L272.97 594.31z"/>
  <polygon clip-path="url(#SVGID_2_)" fill="#FFFFFF" points="878.04 834.27 950.4 714.44 654.12 159.17 581.67 278.66 "/>
  <path clip-path="url(#SVGID_2_)" fill="#010101" d="M878.04 843.44c-0.08 0-0.17 0-0.24-0.01 -3.29-0.08-6.29-1.93-7.84-4.85L573.58 282.98c-1.51-2.86-1.43-6.3 0.25-9.06l72.45-119.49c1.71-2.82 4.78-4.6 8.09-4.4 3.29 0.09 6.28 1.94 7.83 4.85l296.29 555.26c1.51 2.84 1.43 6.29-0.24 9.05l-72.36 119.84C884.22 841.76 881.25 843.44 878.04 843.44M592.21 278.95L878.53 815.74l61.34-101.58L653.61 177.68 592.21 278.95z"/>
  <polygon clip-path="url(#SVGID_2_)" fill="#FFFFFF" points="514.92 389.4 752.12 834.08 878.04 834.28 581.76 279.24 "/>
  <path clip-path="url(#SVGID_2_)" fill="#010101" d="M878.04 843.44h-0.01l-125.93-0.2c-3.38 0-6.48-1.87-8.07-4.85L506.83 393.71c-1.52-2.86-1.43-6.29 0.25-9.06l66.84-110.16c1.71-2.82 4.77-4.49 8.09-4.4 3.3 0.09 6.29 1.94 7.83 4.84l296.29 555.04c1.52 2.84 1.43 6.27-0.23 9.04C884.24 841.75 881.26 843.44 878.04 843.44M757.62 824.93l105.13 0.16L581.25 297.74l-55.79 91.94L757.62 824.93z"/>
  <polygon clip-path="url(#SVGID_2_)" fill="#FFFFFF" points="50.93 715.11 122.76 835.28 752.11 834.08 688.32 714.53 "/>
  <path clip-path="url(#SVGID_2_)" fill="#010101" d="M122.76 844.44c-3.22 0-6.21-1.7-7.86-4.45l-71.83-120.17c-1.69-2.83-1.73-6.35-0.11-9.22 1.63-2.87 4.66-4.64 7.96-4.65l637.39-0.58h0.01c3.38 0 6.49 1.86 8.09 4.85l63.79 119.56c1.51 2.83 1.43 6.26-0.22 9.02 -1.66 2.76-4.63 4.45-7.85 4.45l-629.35 1.2H122.76zM67.08 724.26l60.87 101.85 608.9-1.16 -54.03-101.25L67.08 724.26z"/>
  <polygon fill="#010101" points="170 898.76 178.26 898.76 166.27 964.37 159.28 964.37 169.6 909.68 169.41 909.68 151.21 942.63 146.98 909.68 146.79 909.68 133.9 964.37 127.01 964.37 142.95 898.76 151.11 898.76 154.66 926.6 "/>
  <polygon fill="#010101" points="214.95 904.66 206.09 904.66 207.37 898.76 231.77 898.76 230.48 904.66 221.54 904.66 210.12 958.46 219.08 958.46 217.8 964.37 193.41 964.37 194.69 958.46 203.54 958.46 "/>
  <polygon fill="#010101" points="265.8 925.81 267.57 925.81 291.96 897.48 296.49 900.83 272.58 928.56 286.95 962.3 280.75 965.65 266.88 931.7 264.62 931.7 257.63 964.36 251.04 964.36 265.01 898.76 271.6 898.76 "/>
  <polygon fill="#010101" points="347.04 898.76 355.31 898.76 343.3 964.37 336.32 964.37 346.65 909.68 346.45 909.68 328.25 942.63 324.02 909.68 323.83 909.68 310.94 964.37 304.06 964.37 319.99 898.76 328.15 898.76 331.69 926.6 "/>
  <path fill="#010101" d="M378.02 944.1l-9.74 21.55 -6.1-1.77 30.49-65.12h7.88l2.75 65.12 -6.89 1.77 -0.5-21.54H378.02zM394.84 907.51h-0.2l-13.78 30.7h14.76L394.84 907.51z"/>
  <polygon fill="#010101" points="442.83 925.81 444.61 925.81 469 897.48 473.52 900.83 449.62 928.56 463.99 962.3 457.79 965.65 443.92 931.7 441.66 931.7 434.67 964.36 428.09 964.36 442.05 898.76 448.64 898.76 "/>
  <path fill="#010101" d="M564.31 931.8c-6.59-4.42-10.92-7.57-8.85-17.21 1.86-8.85 9.44-16.73 18.79-16.73 9.24 0 12.29 6.6 12.29 14.85l-6.69 0.99c0-4.83-1.37-9.64-6.98-9.64 -6.19 0-9.64 5.01-10.82 10.52 -1.08 5.31-0.49 6.99 8.56 13.18 6.98 4.81 11.7 8.85 9.54 18.98 -2.17 10.33-9.44 18.5-20.46 18.5 -11.61 0-14.17-7.68-12.99-18.1l6.79-0.89c-0.7 7.28-0.3 12.8 7.67 12.8 5.7 0 10.62-3.84 12.29-11.71C575.23 938.69 570.3 935.74 564.31 931.8"/>
  <polygon fill="#010101" points="628.24 904.66 614.08 904.66 615.35 898.76 649.98 898.76 648.7 904.66 634.82 904.66 622.14 964.37 615.56 964.37 "/>
  <path fill="#010101" d="M682.23 898.76l-10.13 47.71c-1.38 6.49-1.48 12.59 6.69 12.59 8.17 0 10.92-6.19 12.3-12.58l10.13-47.7h6.59l-10.62 49.67c-2.16 10.22-9.93 16.82-19.67 16.82 -9.93 0-14.56-6.79-12.49-16.53l10.62-49.96H682.23z"/>
  <path fill="#010101" d="M731.61 904.66l1.28-5.9h17.32c13.18 0 19.67 5.8 13.96 32.85 -3.05 14.46-7.77 32.76-27.74 32.76h-17.5l1.28-5.91h5.31l11.4-53.79H731.61zM732.1 958.46h5.41c7.97 0 14.47-2.06 19.78-26.85 5.31-24.99-0.99-26.95-6.79-26.95h-6.98L732.1 958.46z"/>
  <polygon fill="#010101" points="805.08 904.66 796.23 904.66 797.51 898.76 821.9 898.76 820.62 904.66 811.67 904.66 800.26 958.46 809.21 958.46 807.93 964.37 783.54 964.37 784.82 958.46 793.67 958.46 "/>
  <path fill="#010101" d="M879.94 931.51c-1.77 8.27-6.89 33.75-25.38 33.75 -18.69 0-12.79-25.28-11.02-33.75 2.26-10.81 7.87-33.63 25.38-33.63C887.41 897.88 881.8 922.86 879.94 931.51M850.42 931.51c-3.73 17.71-3.83 27.54 5.41 27.54 11.41 0 14.75-16.13 17.21-27.54 2.66-12.39 6.1-27.44-5.5-27.44C855.93 904.07 852.49 921.88 850.42 931.51"/>
</svg>
